Coordinates
version=1
nRows=13
nColumns=34
inDegrees=yes

Units are S.I. units (second, meters, Newtons, ...)
If the header above contains a line with 'inDegrees', this indicates whether rotational values are in degrees (yes) or radians (no).

endheader
time	pelvis_tilt	pelvis_list	pelvis_rotation	pelvis_tx	pelvis_ty	pelvis_tz	hip_flexion_r	hip_adduction_r	hip_rotation_r	knee_angle_r	ankle_angle_r	subtalar_angle_r	mtp_angle_r	hip_flexion_l	hip_adduction_l	hip_rotation_l	knee_angle_l	ankle_angle_l	subtalar_angle_l	mtp_angle_l	lumbar_extension	lumbar_bending	lumbar_rotation	arm_flex_r	arm_add_r	arm_rot_r	elbow_flex_r	pro_sup_r	arm_flex_l	arm_add_l	arm_rot_l	elbow_flex_l	pro_sup_l
      2.98333330	      6.14928236	     -7.82885318	    -55.60465473	      1.49911752	      1.00327347	      3.34973528	     24.49464974	      8.47798350	     -0.61213661	     32.49365279	      2.39041491	      2.24056507	      0.00000000	     11.06874642	     18.05969224	      0.65518261	     10.10425905	     -2.98202991	    -12.80844142	      0.00000000	    -18.39576778	     -7.05526206	     14.23707964	     20.60400251	     18.48179309	     21.71518807	     19.03006201	    105.90730403	      7.87964217	     24.04361758	     31.42018845	     14.91429737	     95.03094876
      3.00000000	      6.11164477	     -7.68399406	    -55.59476234	      1.49888898	      1.00324185	      3.35176425	     24.20022977	      8.54966748	      0.16787741	     31.93560997	      3.23283244	      2.95183372	      0.00000000	     11.32620646	     18.04562824	      0.80863056	     10.52147835	     -2.75481631	    -13.02942031	      0.00000000	    -18.25760016	     -7.30620770	     14.32264593	     20.65881612	     18.28668327	     21.63908374	     18.97372193	    105.94616581	      7.93612067	     23.70527340	     31.56088591	     14.75001626	     95.04205780
      3.01666670	      6.43676156	     -7.08734904	    -55.86600361	      1.49868971	      1.00299336	      3.35462825	     24.15178412	      7.90740341	      0.75303356	     31.65711715	      4.37984585	      4.46332164	      0.00000000	     11.44665277	     18.55881184	      0.63989061	     10.21123625	     -2.83955488	    -13.23984143	      0.00000000	    -17.81672183	     -8.24361318	     14.80411130	     20.58287865	     18.10633073	     21.50698274	     18.68043314	    106.09326839	      7.82509133	     23.21990337	     32.07689554	     14.44532446	     95.09654784
      3.03333330	      6.61791736	     -6.75311229	    -55.55157355	      1.49829645	      1.00302448	      3.35709710	     23.86041650	      7.56559668	      1.05464808	     31.16962774	      5.07215086	      4.32301327	      0.00000000	     11.58828060	     18.85070046	      0.88091718	     10.42461416	     -2.74423739	    -13.27613575	      0.00000000	    -17.67636500	     -8.79636691	     14.75937872	     20.55551624	     17.96904269	     21.48079510	     18.64814055	    106.11716480	      7.77400392	     22.64990309	     32.12598770	     14.28973339	     95.09866172
      3.05000000	      7.20628095	     -5.88226105	    -55.51569789	      1.49836769	      1.00215281	      3.35977878	     24.35720083	      6.90900749	      2.27867438	     31.96629460	      6.81169489	      3.14675309	      0.00000000	     11.59092298	     19.83491952	      1.08132277	      9.78255359	     -3.15373932	    -13.61000681	      0.00000000	    -17.19683811	     -9.94374142	     15.17804271	     20.46811746	     17.76849309	     21.45901790	     18.47539726	    106.37812443	      7.66937114	     21.97435537	     33.05510219	     14.15856418	     95.25333723
      3.06666670	      7.49987266	     -5.68286943	    -55.27392528	      1.49966569	      1.00192642	      3.36223791	     24.22010894	      6.61313646	      2.70389864	     32.42691614	      8.64142632	      2.51395812	      0.00000000	     11.46878552	     20.25135931	      1.37062558	      9.99594852	     -2.68029459	    -13.69600037	      0.00000000	    -17.02923071	    -10.15326863	     15.71037056	     20.31527622	     17.31156818	     21.42190567	     18.29302481	    106.41670436	      7.51233820	     21.64694186	     33.15075527	     14.01723036	     95.25639436
      3.08333330	      8.03824464	     -5.10628730	    -55.66176313	      1.50063163	      1.00124571	      3.36437804	     24.53970166	      5.87282438	      3.19287076	     33.32006318	     10.66128516	      3.45844799	      0.00000000	     11.45569711	     21.00799740	      1.07848442	      9.62118566	     -2.61280927	    -13.52747601	      0.00000000	    -16.66599282	    -10.96156648	     16.96188165	     20.14141600	     16.69395376	     21.24728975	     18.04604053	    106.53616343	      7.36676924	     21.41929750	     33.76697229	     14.05626126	     95.35880354
      3.10000000	      8.07348850	     -4.93347962	    -55.37141001	      1.50251279	      1.00103808	      3.36546983	     24.54984456	      5.58108569	      3.23407663	     33.53253907	     11.67875784	      3.36759316	      0.00000000	     11.37479130	     21.22960610	      1.16909553	      9.59090108	     -2.49300731	    -13.34037076	      0.00000000	    -16.44323948	    -10.80009763	     17.73125562	     19.95335965	     15.97072250	     21.14560615	     17.79229448	    106.54681203	      7.18266594	     21.39946885	     33.88829771	     14.17311078	     95.37433608
      3.11666670	      8.36954982	     -4.69166020	    -55.64131749	      1.50403903	      1.00078475	      3.36675945	     24.65985570	      4.84167743	      2.79513014	     34.06003794	     13.32812306	      5.43088567	      0.00000000	     11.41020663	     21.62791043	      0.71677706	      9.63678006	     -2.16808866	    -12.98829791	      0.00000000	    -16.13373852	    -11.04728213	     18.88878453	     19.68560824	     15.30461841	     20.65870534	     17.83918812	    106.55113103	      7.04923120	     21.29933912	     34.49429986	     14.55712284	     95.45581572
      3.13333330	      8.21269638	     -4.67278204	    -55.71277991	      1.50518421	      1.00042330	      3.36679917	     24.75588584	      4.54092838	      1.93392615	     34.20246708	     14.44365705	      6.70055165	      0.00000000	     11.74871485	     21.57769490	      0.62150385	     10.10727362	     -1.83335295	    -13.10598808	      0.00000000	    -16.06770538	    -10.71063758	     19.99856304	     19.65971449	     14.55564331	     20.12039025	     17.50378432	    106.50039734	      7.11656459	     21.36634572	     34.95851111	     14.78420948	     95.49608002
      3.15000000	      8.13917416	     -4.59052814	    -55.74067500	      1.50543988	      1.00037403	      3.36644392	     24.91174896	      4.30290688	      1.20748126	     34.26776235	     14.57053436	      6.40794138	      0.00000000	     11.81916191	     21.59614043	      0.60342373	      9.96937023	     -1.91133206	    -13.05119490	      0.00000000	    -16.18068554	    -10.63222710	     20.74830946	     19.76792458	     13.90335783	     19.98508457	     17.27600647	    106.47945480	      7.32150780	     21.33657994	     35.00567192	     14.98214948	     95.49965959
      3.16666670	      8.04169742	     -4.45977766	    -55.71481086	      1.50522337	      1.00066097	      3.36655067	     25.19319308	      4.04313896	      0.32995750	     34.42429220	     13.87195919	      6.26252364	      0.00000000	     11.80115636	     21.57528506	      0.51876802	      9.61548324	     -2.11914620	    -12.97417380	      0.00000000	    -16.07035826	    -10.65008926	     21.30000030	     19.84812571	     13.46840425	     19.77099581	     17.24042807	    106.44138231	      7.62064286	     21.04112065	     35.11569091	     15.23122118	     95.51385600
      3.18333330	      7.87538715	     -4.39430671	    -55.70732593	      1.50485410	      1.00117006	      3.36649489	     25.47558696	      3.93432664	     -0.33012529	     34.49889727	     13.04833644	      6.08887486	      0.00000000	     11.72290900	     21.44637685	      0.58939379	      9.17184841	     -2.35645987	    -12.83268580	      0.00000000	    -15.92363959	    -10.63669777	     21.73820483	     20.00583919	     13.04906804	     19.54805964	     17.26655054	    106.39617250	      8.03844374	     20.77273974	     35.18494826	     15.54780691	     95.52587041
